<svg xmlns="http://www.w3.org/2000/svg" width="128" height="128" viewBox="0 0 128 128"><defs><linearGradient id="g64079" x1="0" y1="0" x2="0" y2="1"><stop offset="0" stop-color="#74c851"/><stop offset="1" stop-color="#43b514"/></linearGradient></defs><path d="M26 6h64l24 24v80a12 12 0 0 1-12 12H26a12 12 0 0 1-12-12V18A12 12 0 0 1 26 6z" fill="url(#g64079)"/><path d="M90 6l24 24H90z" fill="#fff" opacity=".32"/><g transform="translate(40 26)"><path d="M24 3l19 10-19 10L5 13z" fill="#fff"/><path d="M4 16v18l18 10V26z" fill="#fff" opacity=".78"/><path d="M44 16v18L26 44V26z" fill="#fff" opacity=".55"/></g><rect x="22" y="86" width="84" height="25" rx="7" fill="#000" opacity=".46"/><text x="64" y="103.5" text-anchor="middle" fill="#fff" font-family="DejaVu Sans, Noto Sans, sans-serif" font-weight="700" font-size="12.5" textLength="57.8" lengthAdjust="spacingAndGlyphs">FLATPAK</text></svg>