<svg xmlns="http://www.w3.org/2000/svg" width="128" height="128" viewBox="0 0 128 128"><defs><linearGradient id="g68391" x1="0" y1="0" x2="0" y2="1"><stop offset="0" stop-color="#6d6d72"/><stop offset="1" stop-color="#3a3a40"/></linearGradient></defs><path d="M26 6h64l24 24v80a12 12 0 0 1-12 12H26a12 12 0 0 1-12-12V18A12 12 0 0 1 26 6z" fill="url(#g68391)"/><path d="M90 6l24 24H90z" fill="#fff" opacity=".32"/><g transform="translate(40 26)"><circle cx="24" cy="24" r="18" fill="#fff"/><circle cx="24" cy="24" r="11" fill="#3a3a40"/><path d="M24 6v12M40 17l-11 6M40 31l-11-6M24 42V30M8 31l11-6M8 17l11 6" stroke="#3a3a40" stroke-width="3" stroke-linecap="round"/></g><rect x="22" y="86" width="84" height="25" rx="7" fill="#000" opacity=".46"/><text x="64" y="103.5" text-anchor="middle" fill="#fff" font-family="DejaVu Sans, Noto Sans, sans-serif" font-weight="700" font-size="21" textLength="41.6" lengthAdjust="spacingAndGlyphs">RAW</text></svg>